<?xml version="1.0" encoding="UTF-8" standalone="no"?>
<svg
   version="1.1"
   width="52.235px"
   height="52.235px"
   viewBox="0 0 52.235 52.235"
   xmlns="http://www.w3.org/2000/svg"
   xmlns:svg="http://www.w3.org/2000/svg">
<path
   d="M 44.611,7.675 C 34.425,-2.537 17.891,-2.562 7.677,7.622 -2.537,17.807 -2.561,34.345 7.621,44.559 17.807,54.774 34.349,54.795 44.558,44.61 54.772,34.426 54.798,17.892 44.611,7.675 Z"
   style="fill:CurrentColor" />

<g
   transform="matrix(1.4239282,0,0,1.4239282,6.7358013,5.6825373)"
   style="fill:#ffffff">
	<path
   d="m 20.038,8.635 c 0,1.271 -1.138,2.302 -2.542,2.302 -1.405,0 -2.543,-1.03 -2.543,-2.302 0,-1.272 1.138,-2.302 2.543,-2.302 1.404,0 2.542,1.03 2.542,2.302 z"
   style="fill:#ffffff" />
	<path
   d="m 26.481,6.785 c 0,-0.18 -0.162,-0.327 -0.361,-0.327 H 20.5 c -0.199,0 -0.36,0.147 -0.36,0.327 v 0.817 c 0,0.18 0.161,0.327 0.36,0.327 h 1.281 c 0.2,0 0.307,0.138 0.238,0.307 l -4.133,10.28 c -0.067,0.169 -0.178,0.169 -0.246,0 L 13.507,8.236 C 13.439,8.068 13.546,7.929 13.744,7.929 h 0.671 c 0.198,0 0.36,-0.147 0.36,-0.327 V 6.785 c 0,-0.18 -0.162,-0.327 -0.36,-0.327 h -5.62 c -0.198,0 -0.361,0.147 -0.361,0.327 v 0.817 c 0,0.18 0.163,0.327 0.361,0.327 h 1.017 c 0.199,0 0.417,0.138 0.484,0.307 l 2.422,6.025 c 0.068,0.169 0.068,0.445 0,0.614 l -1.459,3.631 c -0.067,0.17 -0.18,0.17 -0.247,0 L 6.884,8.235 C 6.814,8.067 6.921,7.929 7.121,7.929 h 0.526 c 0.199,0 0.361,-0.147 0.361,-0.327 V 6.785 C 8.008,6.605 7.846,6.458 7.647,6.458 H 2.028 c -0.198,0 -0.361,0.147 -0.361,0.327 v 0.817 c 0,0.18 0.163,0.327 0.361,0.327 h 1.16 c 0.199,0 0.417,0.138 0.483,0.307 l 6.603,16.405 c 0.068,0.168 0.179,0.168 0.247,0 l 3.062,-7.616 c 0.068,-0.169 0.179,-0.169 0.247,0 l 3.065,7.626 c 0.068,0.168 0.125,0.297 0.129,0.285 0.002,-0.012 0.004,-0.014 0.005,-0.005 0,0.009 0.057,-0.122 0.123,-0.29 L 23.748,8.236 c 0.067,-0.168 0.286,-0.307 0.483,-0.307 h 1.889 c 0.199,0 0.361,-0.147 0.361,-0.327 z"
   style="fill:#ffffff" />
</g></svg>
